# xmcd
#
# Track frame offsets: 
#        150
#        23911
#        39471
#        57423
#        81217
#        105320
#        135736
#        154349
#        166618
#        178486
#        201495
#        219471
#        234069
#        264548
#        287212
#        316509
#        352354
#
# Disc length: 4763 seconds
#
# Revision: 0
# Processed by: cddbd v1.5.2PL0 Copyright (c) Steve Scherf et al.
# Submitted via: ExactAudioCopy v1.0b1
#
DISCID=f6129911
DTITLE=Various Artist - Walkin' Blues [CD2)
DYEAR=2009
DGENRE=Blues
TTITLE0=Ain't She Trouble - Gary Primitch
TTITLE1=Broke and Hungry - Cephas and Wiggins
TTITLE2=Country Boy - Johnny Dyer
TTITLE3=The Legend of Fillmore Slim - Fillmore Slim
TTITLE4=About to Lose Your Clown - Gary Smith
TTITLE5=No Escapin' From The Blues - Paris Slim
TTITLE6=My Friend Blue - Fillmore Slim
TTITLE7=Got To Find My Baby - Johnny Dyer
TTITLE8=Feel Like Shouting - Paris Slim, Gary Smith
TTITLE9=It's My Life, Baby - RJ Mischo
TTITLE10=Faster Than Time - Fillmore Slim
TTITLE11=Blues For Mr. B - Gary Smith
TTITLE12=Can't Judge Nobody - Mark Hummel
TTITLE13=Red Light - Eddie Taylor
TTITLE14=Blue and Lonesome - M. Hummel and L. Tucker
TTITLE15=You're Gonna Need My Help - Rick Estrin
TTITLE16=Evans Shuffle - Johnny Dyer and Paul Oscher
EXTD=
EXTT0=
EXTT1=
EXTT2=
EXTT3=
EXTT4=
EXTT5=
EXTT6=
EXTT7=
EXTT8=
EXTT9=
EXTT10=
EXTT11=
EXTT12=
EXTT13=
EXTT14=
EXTT15=
EXTT16=
PLAYORDER=
